<?xml version="1.0" encoding="UTF-8"?> <svg xmlns="http://www.w3.org/2000/svg" width="251" height="64" viewBox="0 0 251 64" fill="none"><path d="M241.983 19.9739C240.767 18.2601 239.119 17.4032 237.025 17.4032C235.824 17.4032 234.681 17.5423 233.597 17.806C232.513 18.0697 231.502 18.5164 230.557 19.1463V24.3025C231.37 23.6287 232.139 23.1599 232.865 22.8889C233.59 22.618 234.432 22.4861 235.391 22.4861C236.263 22.4861 236.929 22.845 237.391 23.5554C237.852 24.2659 238.079 25.218 238.079 26.4045V28.8801C237.816 28.3454 237.398 27.906 236.842 27.5691C236.285 27.2322 235.648 27.0637 234.937 27.0637C232.579 27.0637 230.858 28.0891 229.752 30.1325C228.646 32.1833 228.097 35.3839 228.097 39.7418C228.097 43.6968 228.668 46.8023 229.818 49.0508C230.96 51.2993 232.447 52.4272 234.278 52.4272C235.26 52.4272 236.095 52.2807 236.798 51.9878C237.493 51.6948 238.05 51.2553 238.453 50.6767L239.039 52.1342H243.807V27.137C243.807 24.0828 243.199 21.6951 241.99 19.9739H241.983ZM238.079 46.5752C237.911 46.8755 237.625 47.1392 237.222 47.3662C236.827 47.5933 236.417 47.7105 235.999 47.7105C235.238 47.7105 234.71 47.2344 234.41 46.2823C234.11 45.3301 233.956 43.2061 233.956 39.9176C233.956 37.0831 234.139 35.0836 234.498 33.9118C234.857 32.7399 235.443 32.154 236.256 32.154C236.732 32.154 237.12 32.3078 237.428 32.6154C237.735 32.923 237.948 33.3771 238.072 33.9777V46.5752H238.079Z" fill="#F58025"></path><path d="M192.985 5.78709L183.829 36.7536L172.924 4.44678L166.354 6.66599L180.416 48.3184L184.269 59.744L187.689 48.1792L199.635 7.75729L192.985 5.78709Z" fill="#F58025"></path><path d="M250.618 50.2813C250.618 51.5996 249.556 52.647 248.209 52.647C246.861 52.647 245.784 51.5996 245.784 50.2813C245.784 48.9629 246.861 47.9302 248.223 47.9302C249.586 47.9302 250.618 48.9629 250.618 50.2813ZM246.385 50.2813C246.385 51.3286 247.176 52.1636 248.223 52.1636C249.241 52.1782 250.018 51.3286 250.018 50.2959C250.018 49.2632 249.241 48.399 248.194 48.399C247.147 48.399 246.385 49.2486 246.385 50.2813ZM247.835 51.5044H247.286V49.1533C247.498 49.124 247.806 49.0801 248.194 49.0801C248.641 49.0801 248.838 49.1533 249 49.2632C249.146 49.3657 249.241 49.5342 249.241 49.7686C249.241 50.0542 249.029 50.2446 248.751 50.3252V50.3545C248.978 50.4277 249.095 50.6108 249.168 50.9258C249.241 51.2847 249.3 51.4165 249.344 51.4971H248.773C248.699 51.4092 248.655 51.2114 248.589 50.9258C248.546 50.6841 248.406 50.5669 248.106 50.5669H247.85V51.4971L247.835 51.5044ZM247.85 50.186H248.106C248.406 50.186 248.648 50.0835 248.648 49.8418C248.648 49.6294 248.487 49.4829 248.15 49.4829C248.004 49.4829 247.908 49.4976 247.85 49.5122V50.186Z" fill="#F58025"></path><path d="M200.968 25.0203C202.873 25.0203 204.418 23.4758 204.418 21.5706C204.418 19.6654 202.873 18.1209 200.968 18.1209C199.063 18.1209 197.518 19.6654 197.518 21.5706C197.518 23.4758 199.063 25.0203 200.968 25.0203Z" fill="#F58025"></path><path d="M203.956 27.313H197.972V52.4348H203.956V27.313Z" fill="#F58025"></path><path d="M224.383 7.77197H218.377V26.1409C218.114 25.6063 216.942 24.3245 215.235 24.3245C213.836 24.3245 211.551 24.3392 209.925 27.2469C209.881 27.3201 209.837 27.4007 209.801 27.4812C209.464 28.1258 209.164 28.9021 208.9 29.8323C208.871 29.9495 208.834 30.0667 208.805 30.1912C208.651 30.7991 208.512 31.4729 208.402 32.2126C208.153 33.8459 208.006 35.8161 208.006 38.1891C208.006 51.3213 212.745 52.0977 214.576 52.0977C217.594 52.0977 218.348 50.9258 218.751 50.3472L219.337 51.8047H224.405C224.456 51.856 224.464 7.76465 224.39 7.76465L224.383 7.77197ZM218.377 46.2457C218.209 46.546 217.923 46.8096 217.52 47.0367C217.125 47.2637 216.715 47.3809 216.297 47.3809C215.536 47.3809 215.008 46.9049 214.708 45.9527C214.408 45.0006 213.997 41.214 213.997 38.2331C213.997 35.2521 214.437 32.2126 214.796 31.0408C215.155 29.8689 215.741 29.283 216.554 29.283C217.03 29.283 217.418 29.4368 217.725 29.7444C218.033 30.052 218.245 30.5061 218.37 31.1067V46.2457H218.377Z" fill="#F58025"></path><path d="M135.205 32.8425C133.352 30.4988 132.246 28.8948 131.894 28.0159C131.536 27.1443 131.352 26.2361 131.352 25.3059C131.352 24.5442 131.506 23.9583 131.807 23.5555C132.107 23.1453 132.495 22.9402 132.956 22.9402C133.506 22.9402 133.931 23.2552 134.246 23.8851C134.553 24.5149 134.707 25.3352 134.707 26.3533H139.424C139.424 23.5335 138.867 21.3509 137.754 19.8128C136.641 18.2748 135.037 17.5131 132.935 17.5131C131.807 17.5131 130.803 17.7694 129.924 18.2601C129.272 18.6263 128.686 19.117 128.174 19.7469C126.973 21.241 126.372 23.2332 126.372 25.7381C126.372 28.2429 126.606 30.1765 127.083 31.8171C127.559 33.4577 128.679 35.3913 130.459 37.6105C131.858 39.361 132.861 40.7086 133.476 41.6607C134.092 42.6129 134.399 43.4918 134.399 44.3048C134.399 45.1837 134.253 45.8428 133.967 46.2823C133.682 46.7217 133.242 46.9415 132.664 46.9415C132.085 46.9415 131.602 46.6631 131.294 46.0919C130.986 45.5279 130.832 44.627 130.832 43.3892H126.116C126.116 46.4141 126.68 48.6773 127.808 50.1861C128.936 51.6948 130.613 52.4492 132.847 52.4492C134.919 52.4492 136.545 51.6436 137.732 50.0322C138.918 48.4209 139.512 46.1651 139.512 43.2721C139.512 41.4044 139.197 39.7125 138.574 38.2038C137.944 36.695 136.816 34.9079 135.19 32.8425H135.205Z" fill="#F58025"></path><path d="M165.966 19.9739C164.751 18.2601 163.103 17.4032 161.008 17.4032C159.807 17.4032 158.664 17.5423 157.58 17.806C156.496 18.0697 155.478 18.5164 154.541 19.1463V24.3025C155.193 23.7605 155.815 23.3577 156.408 23.0794C156.555 23.0135 156.701 22.9402 156.84 22.8889C157.295 22.7205 157.793 22.6106 158.335 22.5447C158.664 22.5081 159.001 22.4788 159.367 22.4788C160.239 22.4788 160.905 22.8377 161.367 23.5481C161.828 24.2586 162.055 25.2107 162.055 26.3972V28.8728C161.784 28.3381 161.374 27.8987 160.817 27.5617C160.261 27.2248 159.624 27.0564 158.913 27.0564C156.562 27.0564 154.834 28.0818 153.728 30.1252C152.622 32.176 152.072 35.3766 152.072 39.7345C152.072 43.6895 152.644 46.7949 153.794 49.0435C154.944 51.292 156.423 52.4199 158.254 52.4199C159.235 52.4199 160.078 52.2734 160.774 51.9804C161.469 51.6875 162.026 51.248 162.429 50.6694L163.015 52.1269H167.783V27.1369C167.783 24.3172 167.263 22.076 166.23 20.3987C166.142 20.2596 166.062 20.1131 165.966 19.9813V19.9739ZM162.063 46.5752C161.894 46.8755 161.608 47.1392 161.206 47.3662C160.81 47.5933 160.4 47.7105 159.99 47.7105C159.228 47.7105 158.701 47.2344 158.401 46.2822C158.1 45.3301 157.946 43.2061 157.946 39.9176C157.946 37.0831 158.13 35.0836 158.488 33.9118C158.847 32.7399 159.433 32.154 160.239 32.154C160.715 32.154 161.11 32.3078 161.418 32.6154C161.726 32.923 161.938 33.3771 162.063 33.9777V46.5752Z" fill="#F58025"></path><path d="M114.295 17.7401C111.101 17.7401 108.743 19.139 107.212 21.9368C105.689 24.7346 104.927 29.0852 104.927 34.9958C104.927 40.9063 105.711 45.0445 107.278 47.9522C108.845 50.8525 111.189 52.3027 114.295 52.3027C117.4 52.3027 119.846 50.9258 121.399 48.1719C122.952 45.418 123.728 41.0308 123.728 34.9958C123.728 28.9607 123.003 24.8006 121.545 21.9734C120.081 19.1463 117.671 17.7328 114.295 17.7328V17.7401ZM116.455 45.6158C116.111 47.1465 115.401 47.9009 114.331 47.9009C113.203 47.9009 112.486 47.1831 112.163 45.7476C111.848 44.3121 111.687 40.7892 111.687 35.1642C111.687 29.5393 111.834 25.7966 112.134 24.3391C112.434 22.8816 113.167 22.1492 114.324 22.1492C115.481 22.1492 116.243 22.845 116.528 24.2512C116.814 25.6648 116.968 29.2463 116.968 35.0177C116.968 40.7892 116.792 44.085 116.448 45.6084L116.455 45.6158Z" fill="#F58025"></path><path d="M102.605 8.55562C101.521 7.19333 100.122 6.16063 98.4378 5.47216C96.7386 4.77636 94.6951 4.4248 92.3734 4.4248C89.766 4.4248 87.4808 4.91552 85.5839 5.87498C83.7016 6.83445 82.1415 8.29195 80.9404 10.2109C79.6367 12.3056 78.6479 15.1473 77.9961 18.6556C77.3369 22.2005 77 26.5144 77 31.4729C77 35.2301 77.1758 38.6505 77.5347 41.6314C77.8862 44.5831 78.4209 47.1612 79.124 49.3145C80.2739 52.852 81.9291 55.4814 84.0458 57.1293C86.1552 58.7626 88.9603 59.5976 92.3953 59.5976C95.4642 59.5976 97.8591 59.0922 99.5144 58.0961C101.162 57.1073 102.503 55.5766 103.521 53.5551C103.858 52.8227 104.195 51.9585 104.517 51.021C104.788 50.2446 105.022 49.3657 105.227 48.4136H96.409C96.0647 51.0869 95.552 51.8559 95.1858 52.1928C94.5779 52.7568 93.7064 53.0351 92.5931 53.0351C90.5057 53.0351 89.0702 51.3799 88.3378 48.1206C87.6566 45.0958 87.3124 39.5001 87.3124 31.4948C87.3124 23.4895 87.6054 18.1356 88.1913 15.4769C88.8285 12.5692 89.9857 11.0971 91.641 11.0971C93.2962 11.0971 94.3216 11.8515 94.7537 13.2724C95.1053 14.4516 95.2884 16.2679 95.3103 18.8241H105.615C105.579 16.6854 105.322 14.7738 104.861 13.1186C104.363 11.3461 103.609 9.81537 102.62 8.56294L102.605 8.55562Z" fill="#F58025"></path><path d="M148.725 50.977C148.308 50.1274 148.095 48.4649 148.095 45.982V16.2899H151.604V9.40522H148.095V4H142.346V9.40522H139.16V16.1727H142.346V46.5752C142.346 50.9844 142.815 54.2583 143.745 56.3969C144.682 58.5282 146.059 59.5975 147.883 59.5975H151.113V52.2514C149.934 52.2514 149.135 51.8266 148.718 50.977H148.725Z" fill="#F58025"></path><path d="M32 0C14.3262 0 0 14.3262 0 32C0 49.6738 14.3262 64 32 64C49.6738 64 64 49.6738 64 32C64 14.3262 49.6657 0 32 0ZM4.28334 20.481L26.1598 35.9929L3.06529 24.0303C3.39602 22.8122 3.80741 21.6264 4.28334 20.481ZM36.7109 40.5505C3.05722 23.4414 21.6022 13.455 21.6022 13.455C11.0512 27.1359 36.7109 40.5505 36.7109 40.5505ZM28.733 21.449C25.8291 28.4104 31.1933 34.3232 34.9443 37.4046C18.424 24.8934 25.7162 18.6257 28.1684 17.0043C27.0229 18.3191 27.0229 22.0217 27.0229 22.0217L28.733 21.449ZM22.4089 52.0776C12.9629 49.1172 6.35644 44.0837 3.61381 41.7283C2.90396 39.6471 2.4119 37.453 2.1699 35.1944C2.82329 36.0655 8.80867 43.6723 23.9899 49.7867C36.7835 54.9413 45.7454 54.1991 45.7454 54.1991C45.7454 54.1991 37.8644 56.9256 22.4089 52.0776ZM54.2475 43.9062C48.1896 42.6559 36.4285 39.0986 33.0164 30.0076C29.459 20.5374 36.7431 18.2143 41.6476 20.3116C41.7605 20.36 41.4379 19.6662 41.0103 18.5047C41.0103 18.5047 40.7361 17.085 40.0908 16.4396C39.0421 15.1409 37.2675 14.5924 37.0981 14.1084C37.3078 13.6889 36.9851 13.6567 37.1707 12.7129L35.9445 13.3501L35.638 12.8177C35.638 12.8177 33.815 12.8339 33.6536 12.5677C33.5407 12.3902 33.5165 11.6642 33.5165 11.6642L32.9599 11.5997L31.9193 11.5755C31.9032 11.5029 31.7661 11.2448 31.6854 10.9544C31.6209 10.7204 31.6854 10.5107 31.6854 10.301L30.9272 10.1558C30.9272 10.1558 30.7336 9.4056 30.7336 9.27653C30.0237 9.31686 28.6847 9.39753 28.6847 9.39753C28.6847 9.39753 28.3539 8.88127 28.2249 8.84094C26.9423 8.39728 25.8614 7.46962 25.6436 7.1389C25.6436 7.1389 26.0146 6.7517 26.2486 6.74363L26.063 6.59844C24.4255 6.13864 21.6426 5.67885 21.0537 5.55785C20.489 6.12251 18.7063 7.94555 18.7063 7.94555L15.5039 6.9211C15.7862 6.74364 16.2541 6.38064 16.6655 6.09024L18.5289 6.67104L20.8036 4.39627L27.3456 5.81598L28.1119 6.96143C27.7409 6.90497 27.5311 7.08243 27.1681 7.0179C27.7167 7.46156 28.12 7.66322 28.7734 7.94555L29.0638 8.37308L31.6128 8.22788C31.6935 8.50214 31.6693 8.93774 31.6693 9.17973C31.8548 9.37333 32.2743 9.05067 32.4356 9.2604C32.3872 9.62339 32.4517 10.2284 32.5163 10.5994C32.9922 10.5268 33.6698 10.785 34.1376 10.6882C34.1376 11.027 34.2022 11.398 34.2264 11.7368C34.8475 11.8982 35.4202 11.8256 35.9768 11.6723L36.1704 12.0676L38.1064 11.0996C38.0096 11.8578 38.2112 12.7371 37.9208 13.4389C38.5984 14.2697 39.5422 14.4149 40.236 15.1086C41.3007 16.1815 41.1878 16.4719 41.5508 17.4641C42.1881 19.1903 42.9624 20.6665 43.7126 22.3282L43.882 23.4656C44.0434 23.7721 44.3741 23.5624 44.3902 23.6753C44.5435 24.6756 44.6 25.0063 45.5679 25.1676C45.5679 25.1676 45.8261 25.0547 46.0923 26.1034C46.1487 26.3373 46.0923 27.2004 46.6408 27.2004C47.399 27.2004 47.3264 28.241 47.7298 28.7411C48.6574 29.8946 48.0686 31.8064 49.1172 30.548C49.6254 29.935 50.0852 28.1845 49.6093 26.9987C49.4721 26.6519 50.0045 25.0547 49.8351 24.6998C49.4157 23.7802 49.3027 22.6912 48.7865 22.1104C47.9879 21.1989 46.5279 21.0134 46.8747 20.6665C47.8104 19.7227 46.5763 18.545 46.5763 18.545C46.2052 17.94 46.8183 16.1008 46.2859 15.7298C45.939 15.4878 45.3259 15.3587 45.0597 15.0925C44.4306 14.4714 43.8982 13.4873 43.9627 12.4306C42.7688 12.5999 42.9302 11.2125 41.7363 11.3496C41.8735 10.4704 41.1475 10.0106 40.4053 9.74439C40.4618 9.49433 40.3085 9.10713 40.365 8.849C40.1472 8.8974 39.8084 8.76027 39.5987 8.80867C39.8972 7.71969 38.55 6.71137 39.5987 6.02571C39.2276 5.31586 38.4532 5.29972 37.7434 5.21906C38.1548 5.21906 38.2596 5.04159 38.5339 4.95286C38.1709 4.63827 37.6708 4.66247 37.1949 4.7996C37.211 4.63827 37.1626 4.44467 37.1787 4.27527C36.2269 3.92841 33.815 4.00908 34.7507 5.46105C33.5326 5.84018 32.9035 4.727 31.7177 4.92866C31.3466 3.42022 28.3701 5.25132 28.1926 3.36375C27.6521 3.29922 27.3375 3.62188 27.1359 4.13814C26.6519 3.75095 26.0227 3.84774 25.571 4.25914C24.845 3.69448 23.8851 4.11394 23.1026 4.04134C22.5299 3.99294 21.9652 3.97681 21.4006 3.92034L21.7635 3.77514C24.9498 2.62163 28.3943 1.98437 31.9839 1.98437C48.5526 1.98437 61.9914 15.4152 61.9914 31.9839C61.9914 36.3398 61.0638 40.4699 59.394 44.2047C58.2243 44.2934 56.4658 44.2934 54.2314 43.882L54.2475 43.9062Z" fill="#29B0A7"></path></svg> 